<?xml version="1.0" encoding="UTF-8" standalone="no"?>
<!DOCTYPE svg PUBLIC "-//W3C//DTD SVG 1.1//EN"
 "http://www.w3.org/Graphics/SVG/1.1/DTD/svg11.dtd">
<!-- Generated by graphviz version 13.1.0 (20250701.0955)
 -->
<!-- Title: tcs34725_register_test Pages: 1 -->
<svg width="332pt" height="1212pt"
 viewBox="0.00 0.00 332.00 1212.00" xmlns="http://www.w3.org/2000/svg" xmlns:xlink="http://www.w3.org/1999/xlink">
<g id="graph0" class="graph" transform="scale(1 1) rotate(0) translate(4 1208)">
<title>tcs34725_register_test</title>
<!-- Node1 -->
<g id="Node000001" class="node">
<title>Node1</title>
<g id="a_Node000001"><a xlink:title="register test">
<polygon fill="#999999" stroke="#666666" points="115,-630 0,-630 0,-610 115,-610 115,-630"/>
<text xml:space="preserve" text-anchor="middle" x="57.5" y="-616.5" font-family="Helvetica,sans-Serif" font-size="10.00">tcs34725_register_test</text>
</a>
</g>
</g>
<!-- Node2 -->
<g id="Node000002" class="node">
<title>Node2</title>
<g id="a_Node000002"><a xlink:href="group__tcs34725__base__driver.html#ga07b5f96653ac8d0430da97e32816dc6b" target="_top" xlink:title="close the chip">
<polygon fill="white" stroke="#666666" points="279.5,-1204 195.25,-1204 195.25,-1184 279.5,-1184 279.5,-1204"/>
<text xml:space="preserve" text-anchor="middle" x="237.38" y="-1190.5" font-family="Helvetica,sans-Serif" font-size="10.00">tcs34725_deinit</text>
</a>
</g>
</g>
<!-- Node1&#45;&gt;Node2 -->
<g id="edge1_Node000001_Node000002" class="edge">
<title>Node1&#45;&gt;Node2</title>
<g id="a_edge1_Node000001_Node000002"><a xlink:title=" ">
<path fill="none" stroke="#63b8ff" d="M58.7,-630.19C60.26,-698.72 72.56,-1092.22 151,-1175 159.64,-1184.11 171.6,-1189.32 183.84,-1192.2"/>
<polygon fill="#63b8ff" stroke="#63b8ff" points="183.12,-1195.62 193.58,-1193.96 184.37,-1188.74 183.12,-1195.62"/>
</a>
</g>
</g>
<!-- Node3 -->
<g id="Node000003" class="node">
<title>Node3</title>
<g id="a_Node000003"><a xlink:href="group__tcs34725__base__driver.html#gab2ab5953533e2ded6c23bd23bc972b81" target="_top" xlink:title="get the adc gain">
<polygon fill="white" stroke="#666666" points="286.25,-1166 188.5,-1166 188.5,-1146 286.25,-1146 286.25,-1166"/>
<text xml:space="preserve" text-anchor="middle" x="237.38" y="-1152.5" font-family="Helvetica,sans-Serif" font-size="10.00">tcs34725_get_gain</text>
</a>
</g>
</g>
<!-- Node1&#45;&gt;Node3 -->
<g id="edge2_Node000001_Node000003" class="edge">
<title>Node1&#45;&gt;Node3</title>
<g id="a_edge2_Node000001_Node000003"><a xlink:title=" ">
<path fill="none" stroke="#63b8ff" d="M58.84,-630.34C61.23,-696.52 77.64,-1060.49 151,-1137 158.03,-1144.33 167.2,-1149.12 176.93,-1152.21"/>
<polygon fill="#63b8ff" stroke="#63b8ff" points="176.04,-1155.59 186.59,-1154.64 177.75,-1148.81 176.04,-1155.59"/>
</a>
</g>
</g>
<!-- Node4 -->
<g id="Node000004" class="node">
<title>Node4</title>
<g id="a_Node000004"><a xlink:href="group__tcs34725__interrupt__driver.html#ga343a89eba5289d8e48419c36bc19bc2a" target="_top" xlink:title="get the interrupt mode">
<polygon fill="white" stroke="#666666" points="309.5,-1128 165.25,-1128 165.25,-1108 309.5,-1108 309.5,-1128"/>
<text xml:space="preserve" text-anchor="middle" x="237.38" y="-1114.5" font-family="Helvetica,sans-Serif" font-size="10.00">tcs34725_get_interrupt_mode</text>
</a>
</g>
</g>
<!-- Node1&#45;&gt;Node4 -->
<g id="edge3_Node000001_Node000004" class="edge">
<title>Node1&#45;&gt;Node4</title>
<g id="a_edge3_Node000001_Node000004"><a xlink:title=" ">
<path fill="none" stroke="#63b8ff" d="M59,-630.39C62.28,-693.84 82.66,-1028.71 151,-1099 152.38,-1100.42 153.85,-1101.75 155.38,-1102.99"/>
<polygon fill="#63b8ff" stroke="#63b8ff" points="153.27,-1105.79 163.57,-1108.31 157.09,-1099.92 153.27,-1105.79"/>
</a>
</g>
</g>
<!-- Node5 -->
<g id="Node000005" class="node">
<title>Node5</title>
<g id="a_Node000005"><a xlink:href="group__tcs34725__base__driver.html#ga05a84b1138dc59fc77e994be9f217bde" target="_top" xlink:title="get the power status">
<polygon fill="white" stroke="#666666" points="298.25,-1090 176.5,-1090 176.5,-1070 298.25,-1070 298.25,-1090"/>
<text xml:space="preserve" text-anchor="middle" x="237.38" y="-1076.5" font-family="Helvetica,sans-Serif" font-size="10.00">tcs34725_get_power_on</text>
</a>
</g>
</g>
<!-- Node1&#45;&gt;Node5 -->
<g id="edge4_Node000001_Node000005" class="edge">
<title>Node1&#45;&gt;Node5</title>
<g id="a_edge4_Node000001_Node000005"><a xlink:title=" ">
<path fill="none" stroke="#63b8ff" d="M59.18,-630.35C63.39,-690.7 87.64,-996.86 151,-1061 155.34,-1065.39 160.44,-1068.86 165.97,-1071.6"/>
<polygon fill="#63b8ff" stroke="#63b8ff" points="164.31,-1074.71 174.9,-1075.21 166.94,-1068.22 164.31,-1074.71"/>
</a>
</g>
</g>
<!-- Node6 -->
<g id="Node000006" class="node">
<title>Node6</title>
<g id="a_Node000006"><a xlink:href="group__tcs34725__base__driver.html#ga953658c229a2858e1931061e8b46a7f4" target="_top" xlink:title="get the rgbc status">
<polygon fill="white" stroke="#666666" points="286.62,-1052 188.12,-1052 188.12,-1032 286.62,-1032 286.62,-1052"/>
<text xml:space="preserve" text-anchor="middle" x="237.38" y="-1038.5" font-family="Helvetica,sans-Serif" font-size="10.00">tcs34725_get_rgbc</text>
</a>
</g>
</g>
<!-- Node1&#45;&gt;Node6 -->
<g id="edge5_Node000001_Node000006" class="edge">
<title>Node1&#45;&gt;Node6</title>
<g id="a_edge5_Node000001_Node000006"><a xlink:title=" ">
<path fill="none" stroke="#63b8ff" d="M59.39,-630.19C64.56,-687.1 92.56,-964.95 151,-1023 158.12,-1030.08 167.26,-1034.76 176.9,-1037.83"/>
<polygon fill="#63b8ff" stroke="#63b8ff" points="175.89,-1041.18 186.44,-1040.26 177.62,-1034.4 175.89,-1041.18"/>
</a>
</g>
</g>
<!-- Node7 -->
<g id="Node000007" class="node">
<title>Node7</title>
<g id="a_Node000007"><a xlink:href="group__tcs34725__interrupt__driver.html#ga150ee4a10bb63faeebece23528bc0774" target="_top" xlink:title="get the rgbc clear high interrupt threshold">
<polygon fill="white" stroke="#666666" points="299.75,-1014 175,-1014 175,-982 299.75,-982 299.75,-1014"/>
<text xml:space="preserve" text-anchor="start" x="183" y="-1000.5" font-family="Helvetica,sans-Serif" font-size="10.00">tcs34725_get_rgbc_clear</text>
<text xml:space="preserve" text-anchor="middle" x="237.38" y="-988.5" font-family="Helvetica,sans-Serif" font-size="10.00">_high_interrupt_threshold</text>
</a>
</g>
</g>
<!-- Node1&#45;&gt;Node7 -->
<g id="edge6_Node000001_Node000007" class="edge">
<title>Node1&#45;&gt;Node7</title>
<g id="a_edge6_Node000001_Node000007"><a xlink:title=" ">
<path fill="none" stroke="#63b8ff" d="M59.82,-630.23C66.77,-682.72 100.78,-921.32 151,-973 155,-977.12 159.64,-980.57 164.65,-983.45"/>
<polygon fill="#63b8ff" stroke="#63b8ff" points="162.78,-986.44 173.3,-987.68 165.85,-980.15 162.78,-986.44"/>
</a>
</g>
</g>
<!-- Node8 -->
<g id="Node000008" class="node">
<title>Node8</title>
<g id="a_Node000008"><a xlink:href="group__tcs34725__interrupt__driver.html#ga26a6710fa01a86f75b693bb3a5355b6d" target="_top" xlink:title="get the rgbc clear low interrupt threshold">
<polygon fill="white" stroke="#666666" points="299.75,-964 175,-964 175,-932 299.75,-932 299.75,-964"/>
<text xml:space="preserve" text-anchor="start" x="183" y="-950.5" font-family="Helvetica,sans-Serif" font-size="10.00">tcs34725_get_rgbc_clear</text>
<text xml:space="preserve" text-anchor="middle" x="237.38" y="-938.5" font-family="Helvetica,sans-Serif" font-size="10.00">_low_interrupt_threshold</text>
</a>
</g>
</g>
<!-- Node1&#45;&gt;Node8 -->
<g id="edge7_Node000001_Node000008" class="edge">
<title>Node1&#45;&gt;Node8</title>
<g id="a_edge7_Node000001_Node000008"><a xlink:title=" ">
<path fill="none" stroke="#63b8ff" d="M58.37,-630.36C58.4,-673.08 64.36,-837.35 151,-923 155.08,-927.04 159.78,-930.43 164.83,-933.28"/>
<polygon fill="#63b8ff" stroke="#63b8ff" points="163,-936.28 173.53,-937.46 166.03,-929.97 163,-936.28"/>
</a>
</g>
</g>
<!-- Node9 -->
<g id="Node000009" class="node">
<title>Node9</title>
<g id="a_Node000009"><a xlink:href="group__tcs34725__base__driver.html#gaf47d1a4d062000d4d18492a8b10cdcd6" target="_top" xlink:title="get the rgbc adc integration time">
<polygon fill="white" stroke="#666666" points="323.75,-914 151,-914 151,-894 323.75,-894 323.75,-914"/>
<text xml:space="preserve" text-anchor="middle" x="237.38" y="-900.5" font-family="Helvetica,sans-Serif" font-size="10.00">tcs34725_get_rgbc_integration_time</text>
</a>
</g>
</g>
<!-- Node1&#45;&gt;Node9 -->
<g id="edge8_Node000001_Node000009" class="edge">
<title>Node1&#45;&gt;Node9</title>
<g id="a_edge8_Node000001_Node000009"><a xlink:title=" ">
<path fill="none" stroke="#63b8ff" d="M58.73,-630.29C60.21,-669.91 71.08,-813.91 151,-885 152.08,-885.97 153.21,-886.88 154.36,-887.76"/>
<polygon fill="#63b8ff" stroke="#63b8ff" points="152.2,-890.53 162.54,-892.86 155.9,-884.6 152.2,-890.53"/>
</a>
</g>
</g>
<!-- Node10 -->
<g id="Node000010" class="node">
<title>Node10</title>
<g id="a_Node000010"><a xlink:href="group__tcs34725__interrupt__driver.html#ga2f440fd59b8fa20bb7adfdde99bfa22b" target="_top" xlink:title="get the rgbc interrupt">
<polygon fill="white" stroke="#666666" points="306.88,-876 167.88,-876 167.88,-856 306.88,-856 306.88,-876"/>
<text xml:space="preserve" text-anchor="middle" x="237.38" y="-862.5" font-family="Helvetica,sans-Serif" font-size="10.00">tcs34725_get_rgbc_interrupt</text>
</a>
</g>
</g>
<!-- Node1&#45;&gt;Node10 -->
<g id="edge9_Node000001_Node000010" class="edge">
<title>Node1&#45;&gt;Node10</title>
<g id="a_edge9_Node000001_Node000010"><a xlink:title=" ">
<path fill="none" stroke="#63b8ff" d="M59.37,-630.05C63.04,-665.74 80.45,-787.41 151,-847 153.1,-848.78 155.34,-850.4 157.68,-851.88"/>
<polygon fill="#63b8ff" stroke="#63b8ff" points="155.96,-854.93 166.44,-856.48 159.21,-848.73 155.96,-854.93"/>
</a>
</g>
</g>
<!-- Node11 -->
<g id="Node000011" class="node">
<title>Node11</title>
<g id="a_Node000011"><a xlink:href="group__tcs34725__base__driver.html#ga6e6143eb30f1ab9d13e6a14445b74e3b" target="_top" xlink:title="get the wait time">
<polygon fill="white" stroke="#666666" points="286.25,-838 188.5,-838 188.5,-818 286.25,-818 286.25,-838"/>
<text xml:space="preserve" text-anchor="middle" x="237.38" y="-824.5" font-family="Helvetica,sans-Serif" font-size="10.00">tcs34725_get_wait</text>
</a>
</g>
</g>
<!-- Node1&#45;&gt;Node11 -->
<g id="edge10_Node000001_Node000011" class="edge">
<title>Node1&#45;&gt;Node11</title>
<g id="a_edge10_Node000001_Node000011"><a xlink:title=" ">
<path fill="none" stroke="#63b8ff" d="M60.28,-630.13C66.43,-661.98 89.88,-760.84 151,-809 158.63,-815.01 167.78,-819.2 177.21,-822.11"/>
<polygon fill="#63b8ff" stroke="#63b8ff" points="176.31,-825.5 186.87,-824.59 178.05,-818.72 176.31,-825.5"/>
</a>
</g>
</g>
<!-- Node12 -->
<g id="Node000012" class="node">
<title>Node12</title>
<g id="a_Node000012"><a xlink:href="group__tcs34725__base__driver.html#ga61af1711e683883f81b6f5fa07e44b41" target="_top" xlink:title="get the wait time">
<polygon fill="white" stroke="#666666" points="298.25,-800 176.5,-800 176.5,-780 298.25,-780 298.25,-800"/>
<text xml:space="preserve" text-anchor="middle" x="237.38" y="-786.5" font-family="Helvetica,sans-Serif" font-size="10.00">tcs34725_get_wait_time</text>
</a>
</g>
</g>
<!-- Node1&#45;&gt;Node12 -->
<g id="edge11_Node000001_Node000012" class="edge">
<title>Node1&#45;&gt;Node12</title>
<g id="a_edge11_Node000001_Node000012"><a xlink:title=" ">
<path fill="none" stroke="#63b8ff" d="M61.68,-630.41C70.7,-658.12 99.21,-734.02 151,-771 155.59,-774.28 160.65,-777.01 165.95,-779.28"/>
<polygon fill="#63b8ff" stroke="#63b8ff" points="164.34,-782.41 174.93,-782.57 166.75,-775.84 164.34,-782.41"/>
</a>
</g>
</g>
<!-- Node13 -->
<g id="Node000013" class="node">
<title>Node13</title>
<g id="a_Node000013"><a xlink:href="group__tcs34725__base__driver.html#ga954f6e12438dc1d9f9b3d7b4247e08db" target="_top" xlink:title="get chip information">
<polygon fill="white" stroke="#666666" points="275.75,-762 199,-762 199,-742 275.75,-742 275.75,-762"/>
<text xml:space="preserve" text-anchor="middle" x="237.38" y="-748.5" font-family="Helvetica,sans-Serif" font-size="10.00">tcs34725_info</text>
</a>
</g>
</g>
<!-- Node1&#45;&gt;Node13 -->
<g id="edge12_Node000001_Node000013" class="edge">
<title>Node1&#45;&gt;Node13</title>
<g id="a_edge12_Node000001_Node000013"><a xlink:title=" ">
<path fill="none" stroke="#63b8ff" d="M63.83,-630.38C75.97,-652.94 108.04,-706.55 151,-733 161.89,-739.71 174.85,-744.05 187.35,-746.87"/>
<polygon fill="#63b8ff" stroke="#63b8ff" points="186.65,-750.3 197.14,-748.77 187.98,-743.43 186.65,-750.3"/>
</a>
</g>
</g>
<!-- Node14 -->
<g id="Node000014" class="node">
<title>Node14</title>
<g id="a_Node000014"><a xlink:href="group__tcs34725__base__driver.html#gad2ae1ca28c0c3dc58431b34e19d3a4b8" target="_top" xlink:title="initialize the chip">
<polygon fill="white" stroke="#666666" points="274.25,-724 200.5,-724 200.5,-704 274.25,-704 274.25,-724"/>
<text xml:space="preserve" text-anchor="middle" x="237.38" y="-710.5" font-family="Helvetica,sans-Serif" font-size="10.00">tcs34725_init</text>
</a>
</g>
</g>
<!-- Node1&#45;&gt;Node14 -->
<g id="edge13_Node000001_Node000014" class="edge">
<title>Node1&#45;&gt;Node14</title>
<g id="a_edge13_Node000001_Node000014"><a xlink:title=" ">
<path fill="none" stroke="#63b8ff" d="M67.95,-630.27C83.59,-646.6 116.56,-678.36 151,-695 162.84,-700.72 176.45,-704.75 189.26,-707.57"/>
<polygon fill="#63b8ff" stroke="#63b8ff" points="188.29,-710.94 198.78,-709.46 189.65,-704.08 188.29,-710.94"/>
</a>
</g>
</g>
<!-- Node15 -->
<g id="Node000015" class="node">
<title>Node15</title>
<g id="a_Node000015"><a xlink:href="group__tcs34725__interface__driver.html#gac79b0b064ace8c4fadb5a92f64353a52" target="_top" xlink:title="interface print format data">
<polygon fill="white" stroke="#666666" points="286.62,-686 188.12,-686 188.12,-654 286.62,-654 286.62,-686"/>
<text xml:space="preserve" text-anchor="start" x="196.12" y="-672.5" font-family="Helvetica,sans-Serif" font-size="10.00">tcs34725_interface</text>
<text xml:space="preserve" text-anchor="middle" x="237.38" y="-660.5" font-family="Helvetica,sans-Serif" font-size="10.00">_debug_print</text>
</a>
</g>
</g>
<!-- Node1&#45;&gt;Node15 -->
<g id="edge14_Node000001_Node000015" class="edge">
<title>Node1&#45;&gt;Node15</title>
<g id="a_edge14_Node000001_Node000015"><a xlink:title=" ">
<path fill="none" stroke="#63b8ff" d="M95.79,-630.48C119.25,-637.08 150.04,-645.73 176.83,-653.26"/>
<polygon fill="#63b8ff" stroke="#63b8ff" points="175.61,-656.56 186.19,-655.89 177.51,-649.82 175.61,-656.56"/>
</a>
</g>
</g>
<!-- Node16 -->
<g id="Node000016" class="node">
<title>Node16</title>
<g id="a_Node000016"><a xlink:href="group__tcs34725__interface__driver.html#ga11e9098dd458d848ed1ecfecdbf4929f" target="_top" xlink:title="interface delay ms">
<polygon fill="white" stroke="#666666" points="286.62,-636 188.12,-636 188.12,-604 286.62,-604 286.62,-636"/>
<text xml:space="preserve" text-anchor="start" x="196.12" y="-622.5" font-family="Helvetica,sans-Serif" font-size="10.00">tcs34725_interface</text>
<text xml:space="preserve" text-anchor="middle" x="237.38" y="-610.5" font-family="Helvetica,sans-Serif" font-size="10.00">_delay_ms</text>
</a>
</g>
</g>
<!-- Node1&#45;&gt;Node16 -->
<g id="edge15_Node000001_Node000016" class="edge">
<title>Node1&#45;&gt;Node16</title>
<g id="a_edge15_Node000001_Node000016"><a xlink:title=" ">
<path fill="none" stroke="#63b8ff" d="M115.27,-620C134.82,-620 156.76,-620 176.55,-620"/>
<polygon fill="#63b8ff" stroke="#63b8ff" points="176.4,-623.5 186.4,-620 176.4,-616.5 176.4,-623.5"/>
</a>
</g>
</g>
<!-- Node17 -->
<g id="Node000017" class="node">
<title>Node17</title>
<g id="a_Node000017"><a xlink:href="group__tcs34725__interface__driver.html#gaa79b35b90bf9c5ce6aa221cb564e9ab1" target="_top" xlink:title="interface iic bus deinit">
<polygon fill="white" stroke="#666666" points="286.62,-586 188.12,-586 188.12,-554 286.62,-554 286.62,-586"/>
<text xml:space="preserve" text-anchor="start" x="196.12" y="-572.5" font-family="Helvetica,sans-Serif" font-size="10.00">tcs34725_interface</text>
<text xml:space="preserve" text-anchor="middle" x="237.38" y="-560.5" font-family="Helvetica,sans-Serif" font-size="10.00">_iic_deinit</text>
</a>
</g>
</g>
<!-- Node1&#45;&gt;Node17 -->
<g id="edge16_Node000001_Node000017" class="edge">
<title>Node1&#45;&gt;Node17</title>
<g id="a_edge16_Node000001_Node000017"><a xlink:title=" ">
<path fill="none" stroke="#63b8ff" d="M95.79,-609.52C119.25,-602.92 150.04,-594.27 176.83,-586.74"/>
<polygon fill="#63b8ff" stroke="#63b8ff" points="177.51,-590.18 186.19,-584.11 175.61,-583.44 177.51,-590.18"/>
</a>
</g>
</g>
<!-- Node18 -->
<g id="Node000018" class="node">
<title>Node18</title>
<g id="a_Node000018"><a xlink:href="group__tcs34725__interface__driver.html#ga8445c0c24c3547df4bfed04776dd6293" target="_top" xlink:title="interface iic bus init">
<polygon fill="white" stroke="#666666" points="286.62,-536 188.12,-536 188.12,-504 286.62,-504 286.62,-536"/>
<text xml:space="preserve" text-anchor="start" x="196.12" y="-522.5" font-family="Helvetica,sans-Serif" font-size="10.00">tcs34725_interface</text>
<text xml:space="preserve" text-anchor="middle" x="237.38" y="-510.5" font-family="Helvetica,sans-Serif" font-size="10.00">_iic_init</text>
</a>
</g>
</g>
<!-- Node1&#45;&gt;Node18 -->
<g id="edge17_Node000001_Node000018" class="edge">
<title>Node1&#45;&gt;Node18</title>
<g id="a_edge17_Node000001_Node000018"><a xlink:title=" ">
<path fill="none" stroke="#63b8ff" d="M68.34,-609.73C84.26,-593.68 117.31,-562.67 151,-545 159.07,-540.77 167.96,-537.16 176.85,-534.11"/>
<polygon fill="#63b8ff" stroke="#63b8ff" points="177.75,-537.5 186.21,-531.12 175.62,-530.83 177.75,-537.5"/>
</a>
</g>
</g>
<!-- Node19 -->
<g id="Node000019" class="node">
<title>Node19</title>
<g id="a_Node000019"><a xlink:href="group__tcs34725__interface__driver.html#gabee62d11ba15bfa8b01bc1c5b9b81c03" target="_top" xlink:title="interface iic bus read">
<polygon fill="white" stroke="#666666" points="286.62,-486 188.12,-486 188.12,-454 286.62,-454 286.62,-486"/>
<text xml:space="preserve" text-anchor="start" x="196.12" y="-472.5" font-family="Helvetica,sans-Serif" font-size="10.00">tcs34725_interface</text>
<text xml:space="preserve" text-anchor="middle" x="237.38" y="-460.5" font-family="Helvetica,sans-Serif" font-size="10.00">_iic_read</text>
</a>
</g>
</g>
<!-- Node1&#45;&gt;Node19 -->
<g id="edge18_Node000001_Node000019" class="edge">
<title>Node1&#45;&gt;Node19</title>
<g id="a_edge18_Node000001_Node000019"><a xlink:title=" ">
<path fill="none" stroke="#63b8ff" d="M63.14,-609.83C74.54,-585.99 106.28,-526.21 151,-495 158.83,-489.54 167.85,-485.25 177.04,-481.9"/>
<polygon fill="#63b8ff" stroke="#63b8ff" points="177.98,-485.28 186.4,-478.85 175.81,-478.62 177.98,-485.28"/>
</a>
</g>
</g>
<!-- Node20 -->
<g id="Node000020" class="node">
<title>Node20</title>
<g id="a_Node000020"><a xlink:href="group__tcs34725__interface__driver.html#ga94ba916a5c8cb285acef590d075c733f" target="_top" xlink:title="interface iic bus write">
<polygon fill="white" stroke="#666666" points="286.62,-436 188.12,-436 188.12,-404 286.62,-404 286.62,-436"/>
<text xml:space="preserve" text-anchor="start" x="196.12" y="-422.5" font-family="Helvetica,sans-Serif" font-size="10.00">tcs34725_interface</text>
<text xml:space="preserve" text-anchor="middle" x="237.38" y="-410.5" font-family="Helvetica,sans-Serif" font-size="10.00">_iic_write</text>
</a>
</g>
</g>
<!-- Node1&#45;&gt;Node20 -->
<g id="edge19_Node000001_Node000020" class="edge">
<title>Node1&#45;&gt;Node20</title>
<g id="a_edge19_Node000001_Node000020"><a xlink:title=" ">
<path fill="none" stroke="#63b8ff" d="M60.97,-609.5C68.67,-579.16 95.1,-490.64 151,-445 158.65,-438.75 167.8,-434.07 177.23,-430.55"/>
<polygon fill="#63b8ff" stroke="#63b8ff" points="178.07,-433.96 186.49,-427.53 175.9,-427.31 178.07,-433.96"/>
</a>
</g>
</g>
<!-- Node21 -->
<g id="Node000021" class="node">
<title>Node21</title>
<g id="a_Node000021"><a xlink:href="group__tcs34725__base__driver.html#ga18c8da99ff6ee76dd4e703b6f15c4166" target="_top" xlink:title="set the adc gain">
<polygon fill="white" stroke="#666666" points="286.25,-386 188.5,-386 188.5,-366 286.25,-366 286.25,-386"/>
<text xml:space="preserve" text-anchor="middle" x="237.38" y="-372.5" font-family="Helvetica,sans-Serif" font-size="10.00">tcs34725_set_gain</text>
</a>
</g>
</g>
<!-- Node1&#45;&gt;Node21 -->
<g id="edge20_Node000001_Node000021" class="edge">
<title>Node1&#45;&gt;Node21</title>
<g id="a_edge20_Node000001_Node000021"><a xlink:title=" ">
<path fill="none" stroke="#63b8ff" d="M59.46,-609.54C63.34,-573.54 81.22,-453.76 151,-395 158.6,-388.6 167.88,-384.24 177.5,-381.28"/>
<polygon fill="#63b8ff" stroke="#63b8ff" points="178.13,-384.73 186.96,-378.88 176.4,-377.94 178.13,-384.73"/>
</a>
</g>
</g>
<!-- Node22 -->
<g id="Node000022" class="node">
<title>Node22</title>
<g id="a_Node000022"><a xlink:href="group__tcs34725__interrupt__driver.html#gaf6cdd1093e8922f75836acbf5318f0a5" target="_top" xlink:title="set the interrupt mode">
<polygon fill="white" stroke="#666666" points="309.5,-348 165.25,-348 165.25,-328 309.5,-328 309.5,-348"/>
<text xml:space="preserve" text-anchor="middle" x="237.38" y="-334.5" font-family="Helvetica,sans-Serif" font-size="10.00">tcs34725_set_interrupt_mode</text>
</a>
</g>
</g>
<!-- Node1&#45;&gt;Node22 -->
<g id="edge21_Node000001_Node000022" class="edge">
<title>Node1&#45;&gt;Node22</title>
<g id="a_edge21_Node000001_Node000022"><a xlink:title=" ">
<path fill="none" stroke="#63b8ff" d="M58.77,-609.52C60.39,-569.81 71.72,-427.35 151,-357 152.44,-355.72 153.96,-354.52 155.53,-353.39"/>
<polygon fill="#63b8ff" stroke="#63b8ff" points="156.94,-356.62 163.76,-348.51 153.37,-350.6 156.94,-356.62"/>
</a>
</g>
</g>
<!-- Node23 -->
<g id="Node000023" class="node">
<title>Node23</title>
<g id="a_Node000023"><a xlink:href="group__tcs34725__base__driver.html#ga55cbffec3f2d0a18dd030d6d4bab7ffb" target="_top" xlink:title="enable or disable the power">
<polygon fill="white" stroke="#666666" points="298.25,-310 176.5,-310 176.5,-290 298.25,-290 298.25,-310"/>
<text xml:space="preserve" text-anchor="middle" x="237.38" y="-296.5" font-family="Helvetica,sans-Serif" font-size="10.00">tcs34725_set_power_on</text>
</a>
</g>
</g>
<!-- Node1&#45;&gt;Node23 -->
<g id="edge22_Node000001_Node000023" class="edge">
<title>Node1&#45;&gt;Node23</title>
<g id="a_edge22_Node000001_Node000023"><a xlink:title=" ">
<path fill="none" stroke="#63b8ff" d="M58.24,-609.55C57.78,-566.48 62.05,-401.17 151,-319 155.35,-314.98 160.36,-311.75 165.72,-309.15"/>
<polygon fill="#63b8ff" stroke="#63b8ff" points="166.98,-312.41 174.98,-305.46 164.39,-305.91 166.98,-312.41"/>
</a>
</g>
</g>
<!-- Node24 -->
<g id="Node000024" class="node">
<title>Node24</title>
<g id="a_Node000024"><a xlink:href="group__tcs34725__base__driver.html#ga3f674d175b480a822bd8256112c9d017" target="_top" xlink:title="enable or disable the rgbc adc">
<polygon fill="white" stroke="#666666" points="286.62,-272 188.12,-272 188.12,-252 286.62,-252 286.62,-272"/>
<text xml:space="preserve" text-anchor="middle" x="237.38" y="-258.5" font-family="Helvetica,sans-Serif" font-size="10.00">tcs34725_set_rgbc</text>
</a>
</g>
</g>
<!-- Node1&#45;&gt;Node24 -->
<g id="edge23_Node000001_Node000024" class="edge">
<title>Node1&#45;&gt;Node24</title>
<g id="a_edge23_Node000001_Node000024"><a xlink:title=" ">
<path fill="none" stroke="#63b8ff" d="M59.86,-609.77C66.92,-558.37 100.89,-328.79 151,-281 158.19,-274.15 167.27,-269.56 176.82,-266.52"/>
<polygon fill="#63b8ff" stroke="#63b8ff" points="177.44,-269.97 186.25,-264.09 175.69,-263.19 177.44,-269.97"/>
</a>
</g>
</g>
<!-- Node25 -->
<g id="Node000025" class="node">
<title>Node25</title>
<g id="a_Node000025"><a xlink:href="group__tcs34725__interrupt__driver.html#ga20f7ba8966a24b52e71f02d2dfa211d5" target="_top" xlink:title="set the rgbc clear high interrupt threshold">
<polygon fill="white" stroke="#666666" points="299.75,-234 175,-234 175,-202 299.75,-202 299.75,-234"/>
<text xml:space="preserve" text-anchor="start" x="183" y="-220.5" font-family="Helvetica,sans-Serif" font-size="10.00">tcs34725_set_rgbc_clear</text>
<text xml:space="preserve" text-anchor="middle" x="237.38" y="-208.5" font-family="Helvetica,sans-Serif" font-size="10.00">_high_interrupt_threshold</text>
</a>
</g>
</g>
<!-- Node1&#45;&gt;Node25 -->
<g id="edge24_Node000001_Node000025" class="edge">
<title>Node1&#45;&gt;Node25</title>
<g id="a_edge24_Node000001_Node000025"><a xlink:title=" ">
<path fill="none" stroke="#63b8ff" d="M59.63,-609.81C65.87,-555.31 97.77,-298.64 151,-243 154.97,-238.85 159.58,-235.38 164.58,-232.48"/>
<polygon fill="#63b8ff" stroke="#63b8ff" points="165.78,-235.79 173.21,-228.24 162.69,-229.51 165.78,-235.79"/>
</a>
</g>
</g>
<!-- Node26 -->
<g id="Node000026" class="node">
<title>Node26</title>
<g id="a_Node000026"><a xlink:href="group__tcs34725__interrupt__driver.html#ga9c75f624815e518b8b38ac7a79107b76" target="_top" xlink:title="set the rgbc clear low interrupt threshold">
<polygon fill="white" stroke="#666666" points="299.75,-184 175,-184 175,-152 299.75,-152 299.75,-184"/>
<text xml:space="preserve" text-anchor="start" x="183" y="-170.5" font-family="Helvetica,sans-Serif" font-size="10.00">tcs34725_set_rgbc_clear</text>
<text xml:space="preserve" text-anchor="middle" x="237.38" y="-158.5" font-family="Helvetica,sans-Serif" font-size="10.00">_low_interrupt_threshold</text>
</a>
</g>
</g>
<!-- Node1&#45;&gt;Node26 -->
<g id="edge25_Node000001_Node000026" class="edge">
<title>Node1&#45;&gt;Node26</title>
<g id="a_edge25_Node000001_Node000026"><a xlink:title=" ">
<path fill="none" stroke="#63b8ff" d="M59.33,-609.66C64.26,-550.64 91.56,-256.85 151,-193 154.98,-188.73 159.64,-185.17 164.7,-182.22"/>
<polygon fill="#63b8ff" stroke="#63b8ff" points="166.05,-185.45 173.48,-177.9 162.96,-179.17 166.05,-185.45"/>
</a>
</g>
</g>
<!-- Node27 -->
<g id="Node000027" class="node">
<title>Node27</title>
<g id="a_Node000027"><a xlink:href="group__tcs34725__base__driver.html#ga01fee12807249b7f58a19a9667442820" target="_top" xlink:title="set the rgbc adc integration time">
<polygon fill="white" stroke="#666666" points="323.75,-134 151,-134 151,-114 323.75,-114 323.75,-134"/>
<text xml:space="preserve" text-anchor="middle" x="237.38" y="-120.5" font-family="Helvetica,sans-Serif" font-size="10.00">tcs34725_set_rgbc_integration_time</text>
</a>
</g>
</g>
<!-- Node1&#45;&gt;Node27 -->
<g id="edge26_Node000001_Node000027" class="edge">
<title>Node1&#45;&gt;Node27</title>
<g id="a_edge26_Node000001_Node000027"><a xlink:title=" ">
<path fill="none" stroke="#63b8ff" d="M59.01,-609.65C62.33,-546.46 82.91,-212.98 151,-143 151.62,-142.37 152.25,-141.75 152.89,-141.16"/>
<polygon fill="#63b8ff" stroke="#63b8ff" points="154.86,-144.06 160.84,-135.31 150.71,-138.42 154.86,-144.06"/>
</a>
</g>
</g>
<!-- Node28 -->
<g id="Node000028" class="node">
<title>Node28</title>
<g id="a_Node000028"><a xlink:href="group__tcs34725__interrupt__driver.html#ga475f1dc64a5344014e50082cfa04ce77" target="_top" xlink:title="enable or disable the rgbc interrupt">
<polygon fill="white" stroke="#666666" points="306.88,-96 167.88,-96 167.88,-76 306.88,-76 306.88,-96"/>
<text xml:space="preserve" text-anchor="middle" x="237.38" y="-82.5" font-family="Helvetica,sans-Serif" font-size="10.00">tcs34725_set_rgbc_interrupt</text>
</a>
</g>
</g>
<!-- Node1&#45;&gt;Node28 -->
<g id="edge27_Node000001_Node000028" class="edge">
<title>Node1&#45;&gt;Node28</title>
<g id="a_edge27_Node000001_Node000028"><a xlink:title=" ">
<path fill="none" stroke="#63b8ff" d="M58.85,-609.7C61.28,-543.78 77.88,-181.2 151,-105 153.07,-102.84 155.33,-100.91 157.73,-99.17"/>
<polygon fill="#63b8ff" stroke="#63b8ff" points="159.44,-102.22 166.32,-94.16 155.92,-96.17 159.44,-102.22"/>
</a>
</g>
</g>
<!-- Node29 -->
<g id="Node000029" class="node">
<title>Node29</title>
<g id="a_Node000029"><a xlink:href="group__tcs34725__base__driver.html#gaf3b0b8760af0644b77175b51a566e3d1" target="_top" xlink:title="enable or disable the wait time">
<polygon fill="white" stroke="#666666" points="286.25,-58 188.5,-58 188.5,-38 286.25,-38 286.25,-58"/>
<text xml:space="preserve" text-anchor="middle" x="237.38" y="-44.5" font-family="Helvetica,sans-Serif" font-size="10.00">tcs34725_set_wait</text>
</a>
</g>
</g>
<!-- Node1&#45;&gt;Node29 -->
<g id="edge28_Node000001_Node000029" class="edge">
<title>Node1&#45;&gt;Node29</title>
<g id="a_edge28_Node000001_Node000029"><a xlink:title=" ">
<path fill="none" stroke="#63b8ff" d="M58.71,-609.85C60.3,-541.56 72.81,-149.47 151,-67 158.14,-59.47 167.54,-54.61 177.5,-51.53"/>
<polygon fill="#63b8ff" stroke="#63b8ff" points="178.09,-54.99 186.96,-49.2 176.42,-48.19 178.09,-54.99"/>
</a>
</g>
</g>
<!-- Node30 -->
<g id="Node000030" class="node">
<title>Node30</title>
<g id="a_Node000030"><a xlink:href="group__tcs34725__base__driver.html#ga4970d44ebeb1ad7d760cd660e123e219" target="_top" xlink:title="set the wait time">
<polygon fill="white" stroke="#666666" points="298.25,-20 176.5,-20 176.5,0 298.25,0 298.25,-20"/>
<text xml:space="preserve" text-anchor="middle" x="237.38" y="-6.5" font-family="Helvetica,sans-Serif" font-size="10.00">tcs34725_set_wait_time</text>
</a>
</g>
</g>
<!-- Node1&#45;&gt;Node30 -->
<g id="edge29_Node000001_Node000030" class="edge">
<title>Node1&#45;&gt;Node30</title>
<g id="a_edge29_Node000001_Node000030"><a xlink:title=" ">
<path fill="none" stroke="#63b8ff" d="M58.59,-609.62C59.43,-538.02 67.86,-117.61 151,-29 155.29,-24.43 160.41,-20.84 165.98,-18.04"/>
<polygon fill="#63b8ff" stroke="#63b8ff" points="167.08,-21.37 175.03,-14.36 164.45,-14.88 167.08,-21.37"/>
</a>
</g>
</g>
</g>
</svg>
