<?xml version="1.0" encoding="UTF-8" standalone="no"?>
<!DOCTYPE svg PUBLIC "-//W3C//DTD SVG 1.1//EN"
 "http://www.w3.org/Graphics/SVG/1.1/DTD/svg11.dtd">
<!-- Generated by graphviz version 13.1.0 (20250701.0955)
 -->
<!-- Title: tcs34725_interrupt_test Pages: 1 -->
<svg width="335pt" height="846pt"
 viewBox="0.00 0.00 335.00 846.00" xmlns="http://www.w3.org/2000/svg" xmlns:xlink="http://www.w3.org/1999/xlink">
<g id="graph0" class="graph" transform="scale(1 1) rotate(0) translate(4 842)">
<title>tcs34725_interrupt_test</title>
<!-- Node1 -->
<g id="Node000001" class="node">
<title>Node1</title>
<g id="a_Node000001"><a xlink:title="interrupt test">
<polygon fill="#999999" stroke="#666666" points="118,-405 0,-405 0,-385 118,-385 118,-405"/>
<text xml:space="preserve" text-anchor="middle" x="59" y="-391.5" font-family="Helvetica,sans-Serif" font-size="10.00">tcs34725_interrupt_test</text>
</a>
</g>
</g>
<!-- Node2 -->
<g id="Node000002" class="node">
<title>Node2</title>
<g id="a_Node000002"><a xlink:href="group__tcs34725__base__driver.html#ga07b5f96653ac8d0430da97e32816dc6b" target="_top" xlink:title="close the chip">
<polygon fill="white" stroke="#666666" points="282.5,-838 198.25,-838 198.25,-818 282.5,-818 282.5,-838"/>
<text xml:space="preserve" text-anchor="middle" x="240.38" y="-824.5" font-family="Helvetica,sans-Serif" font-size="10.00">tcs34725_deinit</text>
</a>
</g>
</g>
<!-- Node1&#45;&gt;Node2 -->
<g id="edge1_Node000001_Node000002" class="edge">
<title>Node1&#45;&gt;Node2</title>
<g id="a_edge1_Node000001_Node000002"><a xlink:title=" ">
<path fill="none" stroke="#63b8ff" d="M60.89,-405.47C66.05,-463.92 94.07,-749.32 154,-809 162.81,-817.78 174.73,-822.88 186.86,-825.77"/>
<polygon fill="#63b8ff" stroke="#63b8ff" points="186.02,-829.17 196.49,-827.56 187.3,-822.29 186.02,-829.17"/>
</a>
</g>
</g>
<!-- Node3 -->
<g id="Node000003" class="node">
<title>Node3</title>
<g id="a_Node000003"><a xlink:href="group__tcs34725__base__driver.html#ga954f6e12438dc1d9f9b3d7b4247e08db" target="_top" xlink:title="get chip information">
<polygon fill="white" stroke="#666666" points="278.75,-800 202,-800 202,-780 278.75,-780 278.75,-800"/>
<text xml:space="preserve" text-anchor="middle" x="240.38" y="-786.5" font-family="Helvetica,sans-Serif" font-size="10.00">tcs34725_info</text>
</a>
</g>
</g>
<!-- Node1&#45;&gt;Node3 -->
<g id="edge2_Node000001_Node000003" class="edge">
<title>Node1&#45;&gt;Node3</title>
<g id="a_edge2_Node000001_Node000003"><a xlink:title=" ">
<path fill="none" stroke="#63b8ff" d="M61.11,-405.23C67.28,-459.92 98.94,-717.35 154,-771 163.77,-780.52 177.2,-785.7 190.51,-788.41"/>
<polygon fill="#63b8ff" stroke="#63b8ff" points="189.67,-791.82 200.09,-789.91 190.76,-784.91 189.67,-791.82"/>
</a>
</g>
</g>
<!-- Node4 -->
<g id="Node000004" class="node">
<title>Node4</title>
<g id="a_Node000004"><a xlink:href="group__tcs34725__base__driver.html#gad2ae1ca28c0c3dc58431b34e19d3a4b8" target="_top" xlink:title="initialize the chip">
<polygon fill="white" stroke="#666666" points="277.25,-762 203.5,-762 203.5,-742 277.25,-742 277.25,-762"/>
<text xml:space="preserve" text-anchor="middle" x="240.38" y="-748.5" font-family="Helvetica,sans-Serif" font-size="10.00">tcs34725_init</text>
</a>
</g>
</g>
<!-- Node1&#45;&gt;Node4 -->
<g id="edge3_Node000001_Node000004" class="edge">
<title>Node1&#45;&gt;Node4</title>
<g id="a_edge3_Node000001_Node000004"><a xlink:title=" ">
<path fill="none" stroke="#63b8ff" d="M61.42,-405.2C68.73,-456.46 103.86,-685.41 154,-733 164.15,-742.64 178.07,-747.8 191.71,-750.45"/>
<polygon fill="#63b8ff" stroke="#63b8ff" points="191.12,-753.9 201.53,-751.92 192.15,-746.98 191.12,-753.9"/>
</a>
</g>
</g>
<!-- Node5 -->
<g id="Node000005" class="node">
<title>Node5</title>
<g id="a_Node000005"><a xlink:href="group__tcs34725__interface__driver.html#gac79b0b064ace8c4fadb5a92f64353a52" target="_top" xlink:title="interface print format data">
<polygon fill="white" stroke="#666666" points="289.62,-724 191.12,-724 191.12,-692 289.62,-692 289.62,-724"/>
<text xml:space="preserve" text-anchor="start" x="199.12" y="-710.5" font-family="Helvetica,sans-Serif" font-size="10.00">tcs34725_interface</text>
<text xml:space="preserve" text-anchor="middle" x="240.38" y="-698.5" font-family="Helvetica,sans-Serif" font-size="10.00">_debug_print</text>
</a>
</g>
</g>
<!-- Node1&#45;&gt;Node5 -->
<g id="edge4_Node000001_Node000005" class="edge">
<title>Node1&#45;&gt;Node5</title>
<g id="a_edge4_Node000001_Node000005"><a xlink:title=" ">
<path fill="none" stroke="#63b8ff" d="M60.12,-405.42C61.17,-446.94 70.75,-602.26 154,-683 161.25,-690.03 170.37,-695.1 179.92,-698.75"/>
<polygon fill="#63b8ff" stroke="#63b8ff" points="178.79,-702.07 189.38,-701.84 180.96,-695.41 178.79,-702.07"/>
</a>
</g>
</g>
<!-- Node6 -->
<g id="Node000006" class="node">
<title>Node6</title>
<g id="a_Node000006"><a xlink:href="group__tcs34725__interface__driver.html#ga11e9098dd458d848ed1ecfecdbf4929f" target="_top" xlink:title="interface delay ms">
<polygon fill="white" stroke="#666666" points="289.62,-674 191.12,-674 191.12,-642 289.62,-642 289.62,-674"/>
<text xml:space="preserve" text-anchor="start" x="199.12" y="-660.5" font-family="Helvetica,sans-Serif" font-size="10.00">tcs34725_interface</text>
<text xml:space="preserve" text-anchor="middle" x="240.38" y="-648.5" font-family="Helvetica,sans-Serif" font-size="10.00">_delay_ms</text>
</a>
</g>
</g>
<!-- Node1&#45;&gt;Node6 -->
<g id="edge5_Node000001_Node000006" class="edge">
<title>Node1&#45;&gt;Node6</title>
<g id="a_edge5_Node000001_Node000006"><a xlink:title=" ">
<path fill="none" stroke="#63b8ff" d="M60.92,-405.36C64.76,-442.19 82.79,-568.01 154,-633 161.38,-639.73 170.47,-644.66 179.95,-648.26"/>
<polygon fill="#63b8ff" stroke="#63b8ff" points="178.71,-651.54 189.31,-651.32 180.89,-644.89 178.71,-651.54"/>
</a>
</g>
</g>
<!-- Node7 -->
<g id="Node000007" class="node">
<title>Node7</title>
<g id="a_Node000007"><a xlink:href="group__tcs34725__interface__driver.html#gaa79b35b90bf9c5ce6aa221cb564e9ab1" target="_top" xlink:title="interface iic bus deinit">
<polygon fill="white" stroke="#666666" points="289.62,-624 191.12,-624 191.12,-592 289.62,-592 289.62,-624"/>
<text xml:space="preserve" text-anchor="start" x="199.12" y="-610.5" font-family="Helvetica,sans-Serif" font-size="10.00">tcs34725_interface</text>
<text xml:space="preserve" text-anchor="middle" x="240.38" y="-598.5" font-family="Helvetica,sans-Serif" font-size="10.00">_iic_deinit</text>
</a>
</g>
</g>
<!-- Node1&#45;&gt;Node7 -->
<g id="edge6_Node000001_Node000007" class="edge">
<title>Node1&#45;&gt;Node7</title>
<g id="a_edge6_Node000001_Node000007"><a xlink:title=" ">
<path fill="none" stroke="#63b8ff" d="M62.11,-405.36C69.13,-437.02 94.63,-533.4 154,-583 161.58,-589.33 170.7,-594.06 180.11,-597.59"/>
<polygon fill="#63b8ff" stroke="#63b8ff" points="178.77,-600.83 189.37,-600.62 180.95,-594.18 178.77,-600.83"/>
</a>
</g>
</g>
<!-- Node8 -->
<g id="Node000008" class="node">
<title>Node8</title>
<g id="a_Node000008"><a xlink:href="group__tcs34725__interface__driver.html#ga8445c0c24c3547df4bfed04776dd6293" target="_top" xlink:title="interface iic bus init">
<polygon fill="white" stroke="#666666" points="289.62,-574 191.12,-574 191.12,-542 289.62,-542 289.62,-574"/>
<text xml:space="preserve" text-anchor="start" x="199.12" y="-560.5" font-family="Helvetica,sans-Serif" font-size="10.00">tcs34725_interface</text>
<text xml:space="preserve" text-anchor="middle" x="240.38" y="-548.5" font-family="Helvetica,sans-Serif" font-size="10.00">_iic_init</text>
</a>
</g>
</g>
<!-- Node1&#45;&gt;Node8 -->
<g id="edge7_Node000001_Node000008" class="edge">
<title>Node1&#45;&gt;Node8</title>
<g id="a_edge7_Node000001_Node000008"><a xlink:title=" ">
<path fill="none" stroke="#63b8ff" d="M64.14,-405.46C74.88,-431.24 106.18,-498.22 154,-533 161.72,-538.62 170.69,-542.98 179.86,-546.36"/>
<polygon fill="#63b8ff" stroke="#63b8ff" points="178.61,-549.64 189.2,-549.43 180.79,-542.99 178.61,-549.64"/>
</a>
</g>
</g>
<!-- Node9 -->
<g id="Node000009" class="node">
<title>Node9</title>
<g id="a_Node000009"><a xlink:href="group__tcs34725__interface__driver.html#gabee62d11ba15bfa8b01bc1c5b9b81c03" target="_top" xlink:title="interface iic bus read">
<polygon fill="white" stroke="#666666" points="289.62,-524 191.12,-524 191.12,-492 289.62,-492 289.62,-524"/>
<text xml:space="preserve" text-anchor="start" x="199.12" y="-510.5" font-family="Helvetica,sans-Serif" font-size="10.00">tcs34725_interface</text>
<text xml:space="preserve" text-anchor="middle" x="240.38" y="-498.5" font-family="Helvetica,sans-Serif" font-size="10.00">_iic_read</text>
</a>
</g>
</g>
<!-- Node1&#45;&gt;Node9 -->
<g id="edge8_Node000001_Node000009" class="edge">
<title>Node1&#45;&gt;Node9</title>
<g id="a_edge8_Node000001_Node000009"><a xlink:title=" ">
<path fill="none" stroke="#63b8ff" d="M68.17,-405.33C83.2,-423.67 117.11,-461.95 154,-483 162.01,-487.57 170.93,-491.37 179.9,-494.51"/>
<polygon fill="#63b8ff" stroke="#63b8ff" points="178.77,-497.82 189.36,-497.55 180.91,-491.16 178.77,-497.82"/>
</a>
</g>
</g>
<!-- Node10 -->
<g id="Node000010" class="node">
<title>Node10</title>
<g id="a_Node000010"><a xlink:href="group__tcs34725__interface__driver.html#ga94ba916a5c8cb285acef590d075c733f" target="_top" xlink:title="interface iic bus write">
<polygon fill="white" stroke="#666666" points="289.62,-474 191.12,-474 191.12,-442 289.62,-442 289.62,-474"/>
<text xml:space="preserve" text-anchor="start" x="199.12" y="-460.5" font-family="Helvetica,sans-Serif" font-size="10.00">tcs34725_interface</text>
<text xml:space="preserve" text-anchor="middle" x="240.38" y="-448.5" font-family="Helvetica,sans-Serif" font-size="10.00">_iic_write</text>
</a>
</g>
</g>
<!-- Node1&#45;&gt;Node10 -->
<g id="edge9_Node000001_Node000010" class="edge">
<title>Node1&#45;&gt;Node10</title>
<g id="a_edge9_Node000001_Node000010"><a xlink:title=" ">
<path fill="none" stroke="#63b8ff" d="M83.71,-405.35C102.56,-413.39 129.72,-424.56 154,-433 162.31,-435.89 171.15,-438.73 179.87,-441.4"/>
<polygon fill="#63b8ff" stroke="#63b8ff" points="178.76,-444.72 189.35,-444.25 180.78,-438.02 178.76,-444.72"/>
</a>
</g>
</g>
<!-- Node11 -->
<g id="Node000011" class="node">
<title>Node11</title>
<g id="a_Node000011"><a xlink:href="group__tcs34725__base__driver.html#gaee49fb264d3d6881c1384731ff183a62" target="_top" xlink:title="read the rgbc data">
<polygon fill="white" stroke="#666666" points="292.25,-424 188.5,-424 188.5,-404 292.25,-404 292.25,-424"/>
<text xml:space="preserve" text-anchor="middle" x="240.38" y="-410.5" font-family="Helvetica,sans-Serif" font-size="10.00">tcs34725_read_rgbc</text>
</a>
</g>
</g>
<!-- Node1&#45;&gt;Node11 -->
<g id="edge10_Node000001_Node000011" class="edge">
<title>Node1&#45;&gt;Node11</title>
<g id="a_edge10_Node000001_Node000011"><a xlink:title=" ">
<path fill="none" stroke="#63b8ff" d="M118.24,-401.17C136.96,-403.15 157.78,-405.36 176.81,-407.37"/>
<polygon fill="#63b8ff" stroke="#63b8ff" points="176.26,-410.83 186.57,-408.41 176.99,-403.87 176.26,-410.83"/>
</a>
</g>
</g>
<!-- Node12 -->
<g id="Node000012" class="node">
<title>Node12</title>
<g id="a_Node000012"><a xlink:href="group__tcs34725__base__driver.html#ga18c8da99ff6ee76dd4e703b6f15c4166" target="_top" xlink:title="set the adc gain">
<polygon fill="white" stroke="#666666" points="289.25,-386 191.5,-386 191.5,-366 289.25,-366 289.25,-386"/>
<text xml:space="preserve" text-anchor="middle" x="240.38" y="-372.5" font-family="Helvetica,sans-Serif" font-size="10.00">tcs34725_set_gain</text>
</a>
</g>
</g>
<!-- Node1&#45;&gt;Node12 -->
<g id="edge11_Node000001_Node000012" class="edge">
<title>Node1&#45;&gt;Node12</title>
<g id="a_edge11_Node000001_Node000012"><a xlink:title=" ">
<path fill="none" stroke="#63b8ff" d="M118.24,-388.83C137.91,-386.75 159.88,-384.42 179.67,-382.32"/>
<polygon fill="#63b8ff" stroke="#63b8ff" points="179.94,-385.81 189.52,-381.28 179.21,-378.85 179.94,-385.81"/>
</a>
</g>
</g>
<!-- Node13 -->
<g id="Node000013" class="node">
<title>Node13</title>
<g id="a_Node000013"><a xlink:href="group__tcs34725__interrupt__driver.html#gaf6cdd1093e8922f75836acbf5318f0a5" target="_top" xlink:title="set the interrupt mode">
<polygon fill="white" stroke="#666666" points="312.5,-348 168.25,-348 168.25,-328 312.5,-328 312.5,-348"/>
<text xml:space="preserve" text-anchor="middle" x="240.38" y="-334.5" font-family="Helvetica,sans-Serif" font-size="10.00">tcs34725_set_interrupt_mode</text>
</a>
</g>
</g>
<!-- Node1&#45;&gt;Node13 -->
<g id="edge12_Node000001_Node000013" class="edge">
<title>Node1&#45;&gt;Node13</title>
<g id="a_edge12_Node000001_Node000013"><a xlink:title=" ">
<path fill="none" stroke="#63b8ff" d="M82.79,-384.55C101.59,-376.23 129.12,-364.74 154,-357 160.76,-354.9 167.88,-352.93 175.02,-351.12"/>
<polygon fill="#63b8ff" stroke="#63b8ff" points="175.82,-354.53 184.72,-348.77 174.17,-347.73 175.82,-354.53"/>
</a>
</g>
</g>
<!-- Node14 -->
<g id="Node000014" class="node">
<title>Node14</title>
<g id="a_Node000014"><a xlink:href="group__tcs34725__base__driver.html#ga55cbffec3f2d0a18dd030d6d4bab7ffb" target="_top" xlink:title="enable or disable the power">
<polygon fill="white" stroke="#666666" points="301.25,-310 179.5,-310 179.5,-290 301.25,-290 301.25,-310"/>
<text xml:space="preserve" text-anchor="middle" x="240.38" y="-296.5" font-family="Helvetica,sans-Serif" font-size="10.00">tcs34725_set_power_on</text>
</a>
</g>
</g>
<!-- Node1&#45;&gt;Node14 -->
<g id="edge13_Node000001_Node000014" class="edge">
<title>Node1&#45;&gt;Node14</title>
<g id="a_edge13_Node000001_Node000014"><a xlink:title=" ">
<path fill="none" stroke="#63b8ff" d="M69.61,-384.6C85.51,-368.05 119.03,-335.87 154,-319 158.71,-316.73 163.7,-314.72 168.8,-312.96"/>
<polygon fill="#63b8ff" stroke="#63b8ff" points="169.45,-316.42 177.95,-310.1 167.36,-309.74 169.45,-316.42"/>
</a>
</g>
</g>
<!-- Node15 -->
<g id="Node000015" class="node">
<title>Node15</title>
<g id="a_Node000015"><a xlink:href="group__tcs34725__base__driver.html#ga3f674d175b480a822bd8256112c9d017" target="_top" xlink:title="enable or disable the rgbc adc">
<polygon fill="white" stroke="#666666" points="289.62,-272 191.12,-272 191.12,-252 289.62,-252 289.62,-272"/>
<text xml:space="preserve" text-anchor="middle" x="240.38" y="-258.5" font-family="Helvetica,sans-Serif" font-size="10.00">tcs34725_set_rgbc</text>
</a>
</g>
</g>
<!-- Node1&#45;&gt;Node15 -->
<g id="edge14_Node000001_Node000015" class="edge">
<title>Node1&#45;&gt;Node15</title>
<g id="a_edge14_Node000001_Node000015"><a xlink:title=" ">
<path fill="none" stroke="#63b8ff" d="M65.43,-384.53C77.82,-361.77 110.48,-307.69 154,-281 161.82,-276.2 170.71,-272.61 179.72,-269.92"/>
<polygon fill="#63b8ff" stroke="#63b8ff" points="180.45,-273.35 189.25,-267.45 178.69,-266.58 180.45,-273.35"/>
</a>
</g>
</g>
<!-- Node16 -->
<g id="Node000016" class="node">
<title>Node16</title>
<g id="a_Node000016"><a xlink:href="group__tcs34725__interrupt__driver.html#ga20f7ba8966a24b52e71f02d2dfa211d5" target="_top" xlink:title="set the rgbc clear high interrupt threshold">
<polygon fill="white" stroke="#666666" points="302.75,-234 178,-234 178,-202 302.75,-202 302.75,-234"/>
<text xml:space="preserve" text-anchor="start" x="186" y="-220.5" font-family="Helvetica,sans-Serif" font-size="10.00">tcs34725_set_rgbc_clear</text>
<text xml:space="preserve" text-anchor="middle" x="240.38" y="-208.5" font-family="Helvetica,sans-Serif" font-size="10.00">_high_interrupt_threshold</text>
</a>
</g>
</g>
<!-- Node1&#45;&gt;Node16 -->
<g id="edge15_Node000001_Node000016" class="edge">
<title>Node1&#45;&gt;Node16</title>
<g id="a_edge15_Node000001_Node000016"><a xlink:title=" ">
<path fill="none" stroke="#63b8ff" d="M63.4,-384.7C72.98,-357.28 102.91,-281.92 154,-243 158.05,-239.92 162.47,-237.21 167.1,-234.84"/>
<polygon fill="#63b8ff" stroke="#63b8ff" points="168.44,-238.08 176.13,-230.78 165.57,-231.69 168.44,-238.08"/>
</a>
</g>
</g>
<!-- Node17 -->
<g id="Node000017" class="node">
<title>Node17</title>
<g id="a_Node000017"><a xlink:href="group__tcs34725__interrupt__driver.html#ga9c75f624815e518b8b38ac7a79107b76" target="_top" xlink:title="set the rgbc clear low interrupt threshold">
<polygon fill="white" stroke="#666666" points="302.75,-184 178,-184 178,-152 302.75,-152 302.75,-184"/>
<text xml:space="preserve" text-anchor="start" x="186" y="-170.5" font-family="Helvetica,sans-Serif" font-size="10.00">tcs34725_set_rgbc_clear</text>
<text xml:space="preserve" text-anchor="middle" x="240.38" y="-158.5" font-family="Helvetica,sans-Serif" font-size="10.00">_low_interrupt_threshold</text>
</a>
</g>
</g>
<!-- Node1&#45;&gt;Node17 -->
<g id="edge16_Node000001_Node000017" class="edge">
<title>Node1&#45;&gt;Node17</title>
<g id="a_edge16_Node000001_Node000017"><a xlink:title=" ">
<path fill="none" stroke="#63b8ff" d="M61.69,-384.83C67.72,-351.86 91.23,-246.96 154,-193 158.1,-189.47 162.68,-186.44 167.53,-183.84"/>
<polygon fill="#63b8ff" stroke="#63b8ff" points="168.82,-187.1 176.42,-179.71 165.87,-180.75 168.82,-187.1"/>
</a>
</g>
</g>
<!-- Node18 -->
<g id="Node000018" class="node">
<title>Node18</title>
<g id="a_Node000018"><a xlink:href="group__tcs34725__base__driver.html#ga01fee12807249b7f58a19a9667442820" target="_top" xlink:title="set the rgbc adc integration time">
<polygon fill="white" stroke="#666666" points="326.75,-134 154,-134 154,-114 326.75,-114 326.75,-134"/>
<text xml:space="preserve" text-anchor="middle" x="240.38" y="-120.5" font-family="Helvetica,sans-Serif" font-size="10.00">tcs34725_set_rgbc_integration_time</text>
</a>
</g>
</g>
<!-- Node1&#45;&gt;Node18 -->
<g id="edge17_Node000001_Node000018" class="edge">
<title>Node1&#45;&gt;Node18</title>
<g id="a_edge17_Node000001_Node000018"><a xlink:title=" ">
<path fill="none" stroke="#63b8ff" d="M60.51,-384.67C62.98,-346.21 77.05,-210 154,-143 155.1,-142.05 156.23,-141.14 157.39,-140.27"/>
<polygon fill="#63b8ff" stroke="#63b8ff" points="158.92,-143.44 165.61,-135.23 155.26,-137.48 158.92,-143.44"/>
</a>
</g>
</g>
<!-- Node19 -->
<g id="Node000019" class="node">
<title>Node19</title>
<g id="a_Node000019"><a xlink:href="group__tcs34725__interrupt__driver.html#ga475f1dc64a5344014e50082cfa04ce77" target="_top" xlink:title="enable or disable the rgbc interrupt">
<polygon fill="white" stroke="#666666" points="309.88,-96 170.88,-96 170.88,-76 309.88,-76 309.88,-96"/>
<text xml:space="preserve" text-anchor="middle" x="240.38" y="-82.5" font-family="Helvetica,sans-Serif" font-size="10.00">tcs34725_set_rgbc_interrupt</text>
</a>
</g>
</g>
<!-- Node1&#45;&gt;Node19 -->
<g id="edge18_Node000001_Node000019" class="edge">
<title>Node1&#45;&gt;Node19</title>
<g id="a_edge18_Node000001_Node000019"><a xlink:title=" ">
<path fill="none" stroke="#63b8ff" d="M59.94,-384.63C60.29,-342.65 67.48,-183.71 154,-105 156.04,-103.15 158.22,-101.46 160.5,-99.93"/>
<polygon fill="#63b8ff" stroke="#63b8ff" points="162.05,-103.07 169.12,-95.18 158.67,-96.94 162.05,-103.07"/>
</a>
</g>
</g>
<!-- Node20 -->
<g id="Node000020" class="node">
<title>Node20</title>
<g id="a_Node000020"><a xlink:href="group__tcs34725__base__driver.html#gaf3b0b8760af0644b77175b51a566e3d1" target="_top" xlink:title="enable or disable the wait time">
<polygon fill="white" stroke="#666666" points="289.25,-58 191.5,-58 191.5,-38 289.25,-38 289.25,-58"/>
<text xml:space="preserve" text-anchor="middle" x="240.38" y="-44.5" font-family="Helvetica,sans-Serif" font-size="10.00">tcs34725_set_wait</text>
</a>
</g>
</g>
<!-- Node1&#45;&gt;Node20 -->
<g id="edge19_Node000001_Node000020" class="edge">
<title>Node1&#45;&gt;Node20</title>
<g id="a_edge19_Node000001_Node000020"><a xlink:title=" ">
<path fill="none" stroke="#63b8ff" d="M59.49,-384.57C57.88,-339.23 57.83,-157.56 154,-67 161.31,-60.12 170.54,-55.52 180.21,-52.49"/>
<polygon fill="#63b8ff" stroke="#63b8ff" points="180.93,-55.92 189.76,-50.07 179.21,-49.13 180.93,-55.92"/>
</a>
</g>
</g>
<!-- Node21 -->
<g id="Node000021" class="node">
<title>Node21</title>
<g id="a_Node000021"><a xlink:href="group__tcs34725__base__driver.html#ga4970d44ebeb1ad7d760cd660e123e219" target="_top" xlink:title="set the wait time">
<polygon fill="white" stroke="#666666" points="301.25,-20 179.5,-20 179.5,0 301.25,0 301.25,-20"/>
<text xml:space="preserve" text-anchor="middle" x="240.38" y="-6.5" font-family="Helvetica,sans-Serif" font-size="10.00">tcs34725_set_wait_time</text>
</a>
</g>
</g>
<!-- Node1&#45;&gt;Node21 -->
<g id="edge20_Node000001_Node000021" class="edge">
<title>Node1&#45;&gt;Node21</title>
<g id="a_edge20_Node000001_Node000021"><a xlink:title=" ">
<path fill="none" stroke="#63b8ff" d="M61.2,-384.69C67.68,-330.7 100.27,-81.02 154,-29 158.25,-24.88 163.19,-21.58 168.51,-18.93"/>
<polygon fill="#63b8ff" stroke="#63b8ff" points="169.77,-22.2 177.72,-15.19 167.14,-15.71 169.77,-22.2"/>
</a>
</g>
</g>
</g>
</svg>
